<?xml version="1.0" encoding="iso-8859-1"?>
<!-- Uploaded to: SVG Repo, www.svgrepo.com, Generator: SVG Repo Mixer Tools -->
<svg height="800px" width="800px" version="1.1" id="Layer_1" xmlns="http://www.w3.org/2000/svg" xmlns:xlink="http://www.w3.org/1999/xlink" 
	 viewBox="0 0 392.598 392.598" xml:space="preserve">
<path style="fill:#FFFFFF;" d="M180.687,312.307H64.194c-11.378,0-20.558-9.18-20.558-20.558v-121.6h38.271
	c6.012,0,10.925-4.848,10.925-10.925c0-6.077-4.848-10.925-10.925-10.925H43.572v-29.931h62.642c6.012,0,10.925-4.848,10.925-10.925
	c0-6.012-4.848-10.925-10.925-10.925H44.089c2.004-9.244,10.214-16.226,20.105-16.226h116.428c7.952,0,14.675,4.59,18.166,11.119
	c7.628-4.396,15.709-8.145,24.242-10.925V32.776c0-6.012-4.848-10.925-10.925-10.925H32.711c-6.012,0-10.925,4.848-10.925,10.925
	v327.111c0,6.012,4.848,10.925,10.925,10.925H212.17c6.012,0,10.925-4.848,10.925-10.925v-33.552
	c-11.83-3.879-22.949-9.503-32.97-16.485C187.216,311.402,184.048,312.307,180.687,312.307z"/>
<path style="fill:#56ACE0;" d="M180.687,80.356H64.194c-9.891,0-18.101,6.982-20.105,16.226h62.19
	c6.012,0,10.925,4.848,10.925,10.925c0,6.012-4.848,10.925-10.925,10.925H43.572v29.931h38.271c6.012,0,10.925,4.848,10.925,10.925
	c0,6.012-4.848,10.925-10.925,10.925H43.572v121.6c0,11.378,9.18,20.558,20.558,20.558h116.428c3.426,0,6.594-0.905,9.374-2.392
	c-33.875-23.337-56.178-62.255-56.178-106.473c0-47.903,26.182-89.665,64.97-112.032C195.362,84.881,188.509,80.356,180.687,80.356z
	"/>
<path style="fill:#FFC10D;" d="M263.176,95.935c-59.281,0-107.572,48.226-107.572,107.572c0,59.281,48.226,107.572,107.572,107.572
	c59.281,0,107.572-48.226,107.572-107.572S322.457,95.935,263.176,95.935z"/>
<g>
	<path style="fill:#194F82;" d="M142.158,332.541h-39.499c-6.012,0-10.925,4.849-10.925,10.925s4.848,10.925,10.925,10.925h39.499
		c6.012,0,10.925-4.848,10.925-10.925C153.083,337.455,148.234,332.541,142.158,332.541z"/>
	<path style="fill:#194F82;" d="M150.626,64.84c6.012,0,10.925-4.848,10.925-10.925s-4.848-10.925-10.925-10.925H94.19
		c-6.012,0-10.925,4.848-10.925,10.925S88.113,64.84,94.19,64.84H150.626z"/>
	<path style="fill:#194F82;" d="M266.537,192.453l-6.659,0.065c-8.727,0-15.838-7.111-15.838-15.838
		c-0.065-8.727,7.046-15.838,15.838-15.838h33.487c6.012,0,10.925-4.848,10.925-10.925s-4.848-10.925-10.925-10.925h-19.265v-10.02
		c0-6.012-4.848-10.925-10.925-10.925c-6.077,0-10.925,4.848-10.925,10.925v10.796c-17.131,3.491-30.125,18.683-30.125,36.913
		c0,20.816,16.937,37.689,37.818,37.689l6.659-0.065c8.727,0,15.838,7.111,15.838,15.838c0,8.727-7.111,15.838-15.838,15.838
		h-33.487c-6.012,0-10.925,4.848-10.925,10.925c0,6.077,4.848,10.925,10.925,10.925h19.265v10.02
		c0,6.012,4.848,10.925,10.925,10.925c6.077,0,10.925-4.848,10.925-10.925v-10.796c17.131-3.491,30.125-18.683,30.125-36.913
		C304.291,209.39,287.354,192.453,266.537,192.453z"/>
	<path style="fill:#194F82;" d="M263.176,74.085c-6.271,0-12.347,0.453-18.36,1.293V32.711C244.816,14.675,230.141,0,212.105,0
		H32.711C14.675,0,0,14.675,0,32.711v327.111c0,18.101,14.675,32.776,32.711,32.776H212.17c18.036,0,32.711-14.675,32.711-32.711
		v-28.444c6.012,0.84,12.154,1.293,18.36,1.293c71.305,0,129.358-58.052,129.358-129.358S334.481,74.085,263.176,74.085z
		 M223.03,359.887c0,6.012-4.848,10.925-10.925,10.925H32.711c-6.012,0-10.925-4.848-10.925-10.925V32.776
		c0-6.012,4.848-10.925,10.925-10.925H212.17c6.012,0,10.925,4.848,10.925,10.925v47.774
		c-51.782,16.873-89.277,65.552-89.277,122.893s37.495,106.02,89.147,122.958v33.487H223.03z M263.176,311.014
		c-59.281,0-107.572-48.226-107.572-107.572c0-59.281,48.226-107.572,107.572-107.572c59.281,0,107.572,48.226,107.572,107.572
		S322.457,311.014,263.176,311.014z"/>
</g>
</svg>